<svg width="24" height="24" viewBox="0 0 24 24" fill="none" xmlns="http://www.w3.org/2000/svg">
<path d="M12.0002 0.333313C10.2106 0.333234 8.44502 0.744844 6.83998 1.5363C5.23493 2.32775 3.83348 3.47784 2.74403 4.89758C1.65458 6.31731 0.906342 7.96865 0.557199 9.72383C0.208057 11.479 0.26737 13.291 0.73055 15.0196C1.19373 16.7482 2.04836 18.347 3.22833 19.6925C4.40829 21.0379 5.88196 22.0939 7.53533 22.7787C9.18869 23.4635 10.9774 23.7587 12.7632 23.6416C14.5489 23.5245 16.2838 22.9982 17.8335 22.1033C17.9729 22.0304 18.0962 21.93 18.1958 21.8082C18.2954 21.6864 18.3694 21.5457 18.4132 21.3946C18.457 21.2435 18.4699 21.0851 18.4509 20.9289C18.4319 20.7727 18.3815 20.6219 18.3028 20.4857C18.2241 20.3495 18.1186 20.2306 17.9927 20.1362C17.8668 20.0418 17.7231 19.9738 17.5703 19.9364C17.4175 19.8989 17.2587 19.8928 17.1034 19.9183C16.9481 19.9439 16.7996 20.0006 16.6669 20.085C14.8876 21.1122 12.8191 21.5237 10.7822 21.2556C8.74527 20.9875 6.85372 20.0548 5.4009 18.6021C3.94807 17.1494 3.01514 15.258 2.74681 13.2211C2.47847 11.1842 2.88971 9.11568 3.91676 7.33632C4.94381 5.55696 6.52927 4.16619 8.42727 3.3797C10.3253 2.59321 12.4297 2.45495 14.4143 2.98636C16.3989 3.51777 18.1527 4.68915 19.4037 6.31885C20.6547 7.94854 21.3331 9.94548 21.3335 12V12.875C21.3335 13.4165 21.1184 13.9358 20.7355 14.3187C20.3526 14.7015 19.8333 14.9166 19.2919 14.9166C18.7504 14.9166 18.2311 14.7015 17.8482 14.3187C17.4653 13.9358 17.2502 13.4165 17.2502 12.875V7.91665C17.2502 7.60723 17.1273 7.31048 16.9085 7.09169C16.6897 6.8729 16.3929 6.74998 16.0835 6.74998C15.8122 6.74394 15.5473 6.83267 15.3344 7.0009C15.1214 7.16912 14.9738 7.40631 14.9169 7.67165C14.0593 7.07849 13.0429 6.75732 12.0002 6.74998C11.1219 6.73948 10.255 6.94951 9.47887 7.36084C8.70277 7.77217 8.04227 8.37166 7.55788 9.10439C7.07349 9.83712 6.78068 10.6797 6.70627 11.5549C6.63187 12.4301 6.77825 13.31 7.132 14.114C7.48575 14.918 8.03558 15.6203 8.73111 16.1568C9.42664 16.6932 10.2456 17.0466 11.1131 17.1845C11.9806 17.3224 12.8688 17.2405 13.6964 16.9462C14.524 16.6519 15.2645 16.1546 15.8502 15.5C16.4045 16.2178 17.1688 16.7451 18.0367 17.0085C18.9046 17.2719 19.833 17.2582 20.6928 16.9695C21.5526 16.6808 22.301 16.1313 22.8341 15.3974C23.3671 14.6636 23.6582 13.7819 23.6669 12.875V12C23.6669 10.4679 23.3651 8.9508 22.7788 7.53534C22.1925 6.11987 21.3331 4.83375 20.2498 3.7504C19.1664 2.66705 17.8803 1.80769 16.4648 1.22139C15.0494 0.63508 13.5323 0.333313 12.0002 0.333313V0.333313ZM12.0002 14.9166C11.4233 14.9166 10.8594 14.7456 10.3798 14.4251C9.90013 14.1046 9.52629 13.6491 9.30554 13.1161C9.08478 12.5832 9.02702 11.9967 9.13956 11.431C9.2521 10.8652 9.52989 10.3455 9.93779 9.93758C10.3457 9.52968 10.8654 9.2519 11.4312 9.13936C11.997 9.02682 12.5834 9.08457 13.1163 9.30533C13.6493 9.52609 14.1048 9.89992 14.4253 10.3796C14.7458 10.8592 14.9169 11.4231 14.9169 12C14.9169 12.7735 14.6096 13.5154 14.0626 14.0624C13.5156 14.6094 12.7737 14.9166 12.0002 14.9166V14.9166Z" fill="#3C3C3C"/>
</svg>
