<svg width="22" height="28" viewBox="0 0 22 28" fill="none" xmlns="http://www.w3.org/2000/svg">
<path d="M0.333416 14C0.333416 13.6464 0.47389 13.3073 0.72394 13.0572C0.973988 12.8072 1.31313 12.6667 1.66675 12.6667H11.7867L8.72008 9.61335C8.59576 9.48904 8.49715 9.34145 8.42987 9.17902C8.36259 9.01659 8.32796 8.8425 8.32796 8.66669C8.32796 8.49087 8.36259 8.31678 8.42987 8.15436C8.49715 7.99193 8.59576 7.84434 8.72008 7.72002C8.8444 7.5957 8.99199 7.49709 9.15442 7.42981C9.31684 7.36253 9.49094 7.3279 9.66675 7.3279C9.84256 7.3279 10.0167 7.36253 10.1791 7.42981C10.3415 7.49709 10.4891 7.5957 10.6134 7.72002L15.9467 13.0534C16.0681 13.1802 16.1633 13.3297 16.2267 13.4934C16.3601 13.818 16.3601 14.1821 16.2267 14.5067C16.1633 14.6704 16.0681 14.8199 15.9467 14.9467L10.6134 20.28C10.4895 20.405 10.342 20.5042 10.1795 20.5719C10.017 20.6396 9.84276 20.6744 9.66675 20.6744C9.49073 20.6744 9.31646 20.6396 9.15398 20.5719C8.9915 20.5042 8.84403 20.405 8.72008 20.28C8.59511 20.1561 8.49592 20.0086 8.42823 19.8461C8.36054 19.6836 8.32568 19.5094 8.32568 19.3334C8.32568 19.1573 8.36054 18.9831 8.42823 18.8206C8.49592 18.6581 8.59511 18.5106 8.72008 18.3867L11.7867 15.3334H1.66675C1.31313 15.3334 0.973988 15.1929 0.72394 14.9428C0.47389 14.6928 0.333416 14.3536 0.333416 14ZM4.33342 0.666687H17.6667C18.7276 0.666687 19.745 1.08811 20.4952 1.83826C21.2453 2.58841 21.6667 3.60582 21.6667 4.66669V23.3334C21.6667 24.3942 21.2453 25.4116 20.4952 26.1618C19.745 26.9119 18.7276 27.3334 17.6667 27.3334H4.33342C3.27255 27.3334 2.25513 26.9119 1.50499 26.1618C0.754843 25.4116 0.333416 24.3942 0.333416 23.3334V19.3334C0.333416 18.9797 0.47389 18.6406 0.72394 18.3905C0.973988 18.1405 1.31313 18 1.66675 18C2.02037 18 2.35951 18.1405 2.60956 18.3905C2.85961 18.6406 3.00008 18.9797 3.00008 19.3334V23.3334C3.00008 23.687 3.14056 24.0261 3.39061 24.2762C3.64065 24.5262 3.97979 24.6667 4.33342 24.6667H17.6667C18.0204 24.6667 18.3595 24.5262 18.6096 24.2762C18.8596 24.0261 19.0001 23.687 19.0001 23.3334V4.66669C19.0001 4.31307 18.8596 3.97393 18.6096 3.72388C18.3595 3.47383 18.0204 3.33335 17.6667 3.33335H4.33342C3.97979 3.33335 3.64065 3.47383 3.39061 3.72388C3.14056 3.97393 3.00008 4.31307 3.00008 4.66669V8.66669C3.00008 9.02031 2.85961 9.35945 2.60956 9.6095C2.35951 9.85954 2.02037 10 1.66675 10C1.31313 10 0.973988 9.85954 0.72394 9.6095C0.47389 9.35945 0.333416 9.02031 0.333416 8.66669V4.66669C0.333416 3.60582 0.754843 2.58841 1.50499 1.83826C2.25513 1.08811 3.27255 0.666687 4.33342 0.666687Z" fill="#479FF8"/>
</svg>
