<svg width="16" height="20" viewBox="0 0 16 20" fill="none" xmlns="http://www.w3.org/2000/svg">
<path d="M15.8701 6.60001C15.7956 6.42872 15.6746 6.28173 15.5209 6.17569C15.3671 6.06964 15.1867 6.00878 15.0001 6.00001H10.4201L11.6901 1.26001C11.7306 1.11168 11.7363 0.956028 11.7068 0.80514C11.6773 0.654253 11.6134 0.512196 11.5201 0.390007C11.427 0.268992 11.3073 0.170922 11.1704 0.103318C11.0334 0.0357144 10.8828 0.000373726 10.7301 6.64638e-06H3.73012C3.50436 -0.00772659 3.28263 0.0612064 3.10104 0.195579C2.91946 0.329951 2.78872 0.521845 2.73012 0.740007L0.0501216 10.74C0.00967373 10.8883 0.00396998 11.044 0.0334537 11.1949C0.0629375 11.3458 0.126814 11.4878 0.220121 11.61C0.314307 11.7324 0.435547 11.8312 0.574342 11.8989C0.713138 11.9666 0.865716 12.0012 1.02012 12H4.89012L3.08012 18.74C3.02082 18.9573 3.03664 19.1883 3.12502 19.3956C3.21341 19.6028 3.36917 19.7741 3.56708 19.8817C3.76499 19.9894 3.99344 20.027 4.21543 19.9886C4.43741 19.9502 4.63991 19.8379 4.79012 19.67L15.6901 7.67001C15.8199 7.52789 15.9059 7.35134 15.9379 7.16154C15.9698 6.97175 15.9463 6.77677 15.8701 6.60001ZM6.08012 15.28L7.15012 11.28C7.19057 11.1317 7.19627 10.976 7.16679 10.8251C7.13731 10.6743 7.07343 10.5322 6.98012 10.41C6.88696 10.289 6.76733 10.1909 6.63039 10.1233C6.49345 10.0557 6.34284 10.0204 6.19012 10.02H2.35012L4.49012 2.00001H9.42012L8.15012 6.74001C8.10935 6.89106 8.10459 7.04958 8.13623 7.20281C8.16786 7.35604 8.23501 7.49971 8.33228 7.62226C8.42955 7.74482 8.55421 7.84284 8.69625 7.90845C8.8383 7.97405 8.99375 8.00541 9.15012 8.00001H12.7201L6.08012 15.28Z" fill="#479FF8"/>
</svg>
