<svg width="20" height="24" viewBox="0 0 20 24" fill="none" xmlns="http://www.w3.org/2000/svg">
<path fill-rule="evenodd" clip-rule="evenodd" d="M19.8701 9.23495C19.7063 7.53035 19.1039 5.89722 18.1215 4.49457C17.1391 3.09193 15.8102 1.96759 14.2643 1.23103C12.7183 0.494468 11.008 0.170794 9.29977 0.291524C7.59158 0.412254 5.94376 0.973274 4.51677 1.91995C3.29083 2.73971 2.26167 3.8208 1.50321 5.08558C0.744745 6.35035 0.275816 7.76741 0.130105 9.23495C-0.0128319 10.6929 0.170558 12.1644 0.666971 13.5426C1.16338 14.9209 1.96037 16.1713 3.00011 17.2033L9.18344 23.3983C9.2919 23.5076 9.42093 23.5944 9.5631 23.6537C9.70527 23.7129 9.85776 23.7434 10.0118 23.7434C10.1658 23.7434 10.3183 23.7129 10.4604 23.6537C10.6026 23.5944 10.7316 23.5076 10.8401 23.3983L17.0001 17.2033C18.0398 16.1713 18.8368 14.9209 19.3332 13.5426C19.8297 12.1644 20.013 10.6929 19.8701 9.23495ZM10.0001 14.3333C12.5774 14.3333 14.6667 12.244 14.6667 9.66664C14.6667 7.08931 12.5774 4.99997 10.0001 4.99997C7.42273 4.99997 5.33339 7.08931 5.33339 9.66664C5.33339 12.244 7.42273 14.3333 10.0001 14.3333Z" fill="#3C3C3C"/>
</svg>
