<svg width="23" height="24" viewBox="0 0 23 24" fill="none" xmlns="http://www.w3.org/2000/svg">
<path d="M14.544 22.1316C13.9484 21.8703 13.3608 21.592 12.7828 21.293C12.4333 21.1118 12.0844 20.9221 11.8912 20.7895L9.96403 19.5514C7.7141 18.0807 5.74719 16.1488 4.09284 14.0236L3.75243 13.5863C2.74539 12.2928 1.84405 10.9193 1.07115 9.47205C0.569335 8.53294 0.153902 7.62411 0.0305788 6.69128C-0.10411 5.67557 0.211869 4.65186 0.865423 3.86593L1.63662 2.93825C1.9759 2.52956 2.34643 2.14717 2.75221 1.80536C3.70867 0.999995 4.77027 0.482709 5.64489 1.36238L7.30322 2.96397C8.42335 4.09056 10.1396 5.96251 9.01951 7.08911L6.94916 8.21399C6.52066 8.44663 6.14898 8.77872 5.88813 9.19255C5.39995 9.96533 5.49543 10.6627 6.27003 11.4886C6.35698 11.5812 6.44223 11.6755 6.52463 11.7721L7.6084 13.0353C8.96665 14.618 10.5556 15.9881 12.3327 17.073C12.5504 17.2062 12.7612 17.3291 12.9613 17.44C13.2807 17.6172 13.6592 17.6497 14.0047 17.5331C14.5651 17.3434 15.051 16.9753 15.3789 16.4809C16.2535 15.1633 16.6087 13.2382 18.2761 14.4077L21.541 16.6775C21.7792 16.8432 21.9974 17.037 22.1895 17.2554C22.9646 18.1379 23.2602 18.6489 22.7368 19.6726C22.635 19.8709 22.4123 20.2465 22.2389 20.3854L22.2253 20.4014C21.4484 21.3182 20.5192 22.0927 19.4792 22.6911L18.8234 22.9495L18.4091 23.0455C18.2448 23.0832 18.0761 23.1015 17.9078 23.0953C16.9326 23.0604 16.208 22.8763 15.2038 22.4214L14.5457 22.1327L14.544 22.1316Z" fill="#3C3C3C"/>
</svg>
