<svg width="26" height="26" viewBox="0 0 26 26" fill="none" xmlns="http://www.w3.org/2000/svg">
<path d="M12.9851 6.37755C11.8645 6.37755 10.744 5.22161 9.25002 3.80852L6.2707 1.13153C5.93455 0.829509 5.40915 1.08423 5.4216 1.54394L5.14147 8.94537C5.15641 9.47543 5.57225 9.34686 6.01298 9.07394L8.12951 8.04657C9.87253 7.40492 10.7615 8.42865 10.8685 9.20252C11.1175 11.0001 10.246 11.2573 8.005 12.1561C6.58195 12.7274 5.14147 13.6977 3.64746 15.4953C2.35638 17.0491 1.46246 19.2021 1.05783 21.2714C0.679343 23.2073 2.20698 25 4.23012 25H21.7699C23.793 25 25.3207 23.2073 24.9422 21.2714C24.5363 19.2021 23.6436 17.0491 22.3525 15.4953C20.8585 13.6977 19.418 12.7261 17.995 12.1561C15.754 11.2573 14.8825 11.0001 15.1315 9.20252C15.2385 8.42865 16.1275 7.40492 17.8705 8.04657L19.987 9.07394C20.4278 9.34686 20.8436 9.47543 20.8585 8.94537L20.5784 1.54394C20.5908 1.08423 20.0655 0.828296 19.7293 1.13153L16.75 3.80852C15.256 5.22161 14.1355 6.37755 13.0149 6.37755H12.9875H12.9851Z" stroke="#5F9DF1" stroke-width="1.5" stroke-miterlimit="10"/>
</svg>
