<svg width="28" height="17" viewBox="0 0 28 17" fill="none" xmlns="http://www.w3.org/2000/svg">
<path d="M10.6701 8.72C10.1365 8.25813 9.70854 7.68688 9.41522 7.04502C9.12189 6.40316 8.97009 5.70571 8.97009 5C8.97009 3.67392 9.49688 2.40215 10.4346 1.46447C11.3722 0.526784 12.644 1.78911e-07 13.9701 1.78911e-07C15.2962 1.78911e-07 16.5679 0.526784 17.5056 1.46447C18.4433 2.40215 18.9701 3.67392 18.9701 5C18.9701 5.70571 18.8183 6.40316 18.525 7.04502C18.2316 7.68688 17.8037 8.25813 17.2701 8.72C18.67 9.35388 19.8576 10.3775 20.6911 11.6685C21.5246 12.9596 21.9686 14.4633 21.9701 16C21.9701 16.2652 21.8647 16.5196 21.6772 16.7071C21.4897 16.8946 21.2353 17 20.9701 17C20.7049 17 20.4505 16.8946 20.263 16.7071C20.0754 16.5196 19.9701 16.2652 19.9701 16C19.9701 14.4087 19.338 12.8826 18.2127 11.7574C17.0875 10.6321 15.5614 10 13.9701 10C12.3788 10 10.8527 10.6321 9.72745 11.7574C8.60223 12.8826 7.97009 14.4087 7.97009 16C7.97009 16.2652 7.86474 16.5196 7.6772 16.7071C7.48966 16.8946 7.23531 17 6.97009 17C6.70488 17 6.45052 16.8946 6.26299 16.7071C6.07545 16.5196 5.97009 16.2652 5.97009 16C5.97156 14.4633 6.41559 12.9596 7.24907 11.6685C8.08256 10.3775 9.27023 9.35388 10.6701 8.72V8.72ZM13.9701 8C14.5634 8 15.1435 7.82405 15.6368 7.49441C16.1302 7.16476 16.5147 6.69623 16.7417 6.14805C16.9688 5.59987 17.0282 4.99667 16.9124 4.41473C16.7967 3.83279 16.511 3.29824 16.0914 2.87868C15.6719 2.45912 15.1373 2.1734 14.5554 2.05764C13.9734 1.94189 13.3702 2.0013 12.822 2.22836C12.2739 2.45542 11.8053 2.83994 11.4757 3.33329C11.146 3.82664 10.9701 4.40666 10.9701 5C10.9701 5.79565 11.2862 6.55871 11.8488 7.12132C12.4114 7.68393 13.1744 8 13.9701 8ZM4.23009 8.32C3.59013 7.59933 3.17208 6.70905 3.02629 5.75634C2.8805 4.80362 3.01317 3.82907 3.40833 2.95C3.80349 2.07093 4.4443 1.3248 5.25362 0.801423C6.06295 0.27805 7.00629 -0.0002576 7.97009 1.78911e-07C8.23531 1.78911e-07 8.48966 0.105357 8.6772 0.292893C8.86474 0.48043 8.97009 0.734784 8.97009 1C8.97009 1.26522 8.86474 1.51957 8.6772 1.70711C8.48966 1.89464 8.23531 2 7.97009 2C7.17444 2 6.41138 2.31607 5.84877 2.87868C5.28616 3.44129 4.97009 4.20435 4.97009 5C4.97151 5.52524 5.1108 6.0409 5.37403 6.49542C5.63727 6.94994 6.01522 7.32738 6.47009 7.59C6.61835 7.67552 6.74218 7.79766 6.82973 7.94474C6.91727 8.09182 6.9656 8.2589 6.97009 8.43C6.97428 8.59976 6.93516 8.7678 6.85643 8.91826C6.7777 9.06872 6.66195 9.19665 6.52009 9.29L6.13009 9.55L6.00009 9.62C4.7947 10.1917 3.77778 11.096 3.06911 12.2263C2.36045 13.3566 1.98955 14.6659 2.00009 16C2.00009 16.2652 1.89474 16.5196 1.7072 16.7071C1.51966 16.8946 1.26531 17 1.00009 17C0.734877 17 0.480522 16.8946 0.292986 16.7071C0.10545 16.5196 9.34601e-05 16.2652 9.34601e-05 16C-0.00808105 14.4654 0.376269 12.9543 1.11662 11.6101C1.85698 10.2659 2.92875 9.13331 4.23009 8.32V8.32Z" fill="#479FF8"/>
<path d="M17.2701 8.72C17.8037 8.25813 18.2316 7.68688 18.525 7.04502C18.8183 6.40316 18.9701 5.70571 18.9701 5C18.9701 3.67392 18.4433 2.40215 17.5056 1.46447C16.5679 0.526784 15.2962 1.78911e-07 13.9701 1.78911e-07C12.644 1.78911e-07 11.3722 0.526784 10.4346 1.46447C9.49688 2.40215 8.97009 3.67392 8.97009 5C8.97009 5.70571 9.12189 6.40316 9.41522 7.04502C9.70854 7.68688 10.1365 8.25813 10.6701 8.72C9.27023 9.35388 8.08256 10.3775 7.24907 11.6685C6.41559 12.9596 5.97156 14.4633 5.97009 16C5.97009 16.2652 6.07545 16.5196 6.26299 16.7071C6.45052 16.8946 6.70488 17 6.97009 17C7.23531 17 7.48966 16.8946 7.6772 16.7071C7.86474 16.5196 7.97009 16.2652 7.97009 16C7.97009 14.4087 8.60223 12.8826 9.72745 11.7574C10.8527 10.6321 12.3788 10 13.9701 10C15.5614 10 17.0875 10.6321 18.2127 11.7574C19.338 12.8826 19.9701 14.4087 19.9701 16C19.9701 16.2652 20.0754 16.5196 20.263 16.7071C20.4505 16.8946 20.7049 17 20.9701 17C21.2353 17 21.4897 16.8946 21.6772 16.7071C21.8647 16.5196 21.9701 16.2652 21.9701 16C21.9686 14.4633 21.5246 12.9596 20.6911 11.6685C19.8576 10.3775 18.67 9.35388 17.2701 8.72V8.72ZM13.9701 8C13.3767 8 12.7967 7.82405 12.3034 7.49441C11.81 7.16476 11.4255 6.69623 11.1985 6.14805C10.9714 5.59987 10.912 4.99667 11.0277 4.41473C11.1435 3.83279 11.4292 3.29824 11.8488 2.87868C12.2683 2.45912 12.8029 2.1734 13.3848 2.05764C13.9668 1.94189 14.57 2.0013 15.1181 2.22836C15.6663 2.45542 16.1349 2.83994 16.4645 3.33329C16.7941 3.82664 16.9701 4.40666 16.9701 5C16.9701 5.79565 16.654 6.55871 16.0914 7.12132C15.5288 7.68393 14.7657 8 13.9701 8ZM23.7101 8.32C24.3501 7.59933 24.7681 6.70905 24.9139 5.75634C25.0597 4.80362 24.927 3.82907 24.5319 2.95C24.1367 2.07093 23.4959 1.3248 22.6866 0.801423C21.8772 0.27805 20.9339 -0.0002576 19.9701 1.78911e-07C19.7049 1.78911e-07 19.4505 0.105357 19.263 0.292893C19.0754 0.48043 18.9701 0.734784 18.9701 1C18.9701 1.26522 19.0754 1.51957 19.263 1.70711C19.4505 1.89464 19.7049 2 19.9701 2C20.7657 2 21.5288 2.31607 22.0914 2.87868C22.654 3.44129 22.9701 4.20435 22.9701 5C22.9687 5.52524 22.8294 6.0409 22.5662 6.49542C22.3029 6.94994 21.925 7.32738 21.4701 7.59C21.3218 7.67552 21.198 7.79766 21.1105 7.94474C21.0229 8.09182 20.9746 8.2589 20.9701 8.43C20.9659 8.59976 21.005 8.7678 21.0838 8.91826C21.1625 9.06872 21.2782 9.19665 21.4201 9.29L21.8101 9.55L21.9401 9.62C23.1455 10.1917 24.1624 11.096 24.8711 12.2263C25.5797 13.3566 25.9506 14.6659 25.9401 16C25.9401 16.2652 26.0455 16.5196 26.233 16.7071C26.4205 16.8946 26.6749 17 26.9401 17C27.2053 17 27.4597 16.8946 27.6472 16.7071C27.8347 16.5196 27.9401 16.2652 27.9401 16C27.9483 14.4654 27.5639 12.9543 26.8236 11.6101C26.0832 10.2659 25.0114 9.13331 23.7101 8.32V8.32Z" fill="#479FF8"/>
</svg>
